<svg width="100" height="100" viewBox="0 0 100 100" fill="none" xmlns="http://www.w3.org/2000/svg">
<g opacity="0.6" filter="url(#filter0_f)">
<path d="M91.7476 49.7042C91.7476 44.2448 84.8829 39.0709 74.3581 35.8624C76.7869 25.1787 75.7074 16.6788 70.951 13.9575C69.8547 13.3192 68.5729 13.0168 67.1729 13.0168V16.7628C67.9488 16.7628 68.5729 16.914 69.0957 17.1996C71.3896 18.5098 72.3847 23.4989 71.6089 29.9158C71.4233 31.4949 71.1197 33.1579 70.7486 34.8545C67.4428 34.0482 63.8333 33.4267 60.0384 33.0235C57.7614 29.9158 55.4 27.0937 53.0218 24.6244C58.5204 19.5345 63.6815 16.746 67.1898 16.746V13C62.5515 13 56.4795 16.2925 50.3401 22.0039C44.2006 16.3261 38.1286 13.0672 33.4903 13.0672V16.8132C36.9817 16.8132 42.1598 19.5849 47.6583 24.6412C45.2969 27.1105 42.9356 29.9158 40.6924 33.0235C36.8805 33.4267 33.271 34.0482 29.9652 34.8713C29.5773 33.1915 29.2905 31.5621 29.0881 29.9998C28.2954 23.5829 29.2737 18.5938 31.5507 17.2668C32.0567 16.9644 32.7145 16.83 33.4903 16.83V13.084C32.0735 13.084 30.7917 13.3864 29.6785 14.0247C24.9389 16.746 23.8763 25.2291 26.322 35.8792C15.831 39.1045 9 44.2616 9 49.7042C9 55.1636 15.8647 60.3375 26.3895 63.546C23.9607 74.2296 25.0401 82.7296 29.7965 85.4509C30.8929 86.0892 32.1747 86.3916 33.5915 86.3916C38.2298 86.3916 44.3018 83.0991 50.4413 77.3877C56.5807 83.0655 62.6527 86.3244 67.291 86.3244C68.7078 86.3244 69.9897 86.022 71.1029 85.3837C75.8424 82.6624 76.905 74.1792 74.4593 63.5292C84.9166 60.3207 91.7476 55.1468 91.7476 49.7042ZM69.7873 38.4998C69.1632 40.6667 68.3873 42.9009 67.5103 45.1351C66.8187 43.7912 66.0935 42.4473 65.3007 41.1035C64.5249 39.7596 63.6984 38.4494 62.8719 37.1727C65.267 37.5255 67.5777 37.9622 69.7873 38.4998ZM62.0623 56.3899C60.7467 58.6577 59.3974 60.8078 57.9975 62.8068C55.4844 63.0252 52.9375 63.1428 50.3738 63.1428C47.8269 63.1428 45.2801 63.0252 42.7838 62.8236C41.3839 60.8246 40.0177 58.6913 38.7021 56.4403C37.4202 54.2397 36.2564 52.0056 35.1938 49.7546C36.2396 47.5036 37.4202 45.2527 38.6852 43.0521C40.0008 40.7843 41.3502 38.6341 42.7501 36.6351C45.2632 36.4168 47.8101 36.2992 50.3738 36.2992C52.9206 36.2992 55.4675 36.4168 57.9638 36.6183C59.3637 38.6173 60.7299 40.7507 62.0455 43.0017C63.3273 45.2023 64.4911 47.4364 65.5537 49.6874C64.4911 51.9384 63.3273 54.1893 62.0623 56.3899ZM67.5103 54.2061C68.4211 56.4571 69.1969 58.7081 69.8379 60.8918C67.6283 61.4294 65.3007 61.8829 62.8888 62.2357C63.7153 60.9422 64.5417 59.6152 65.3176 58.2545C66.0935 56.9106 66.8187 55.55 67.5103 54.2061ZM50.4075 72.1299C48.8389 70.5172 47.2703 68.7198 45.7186 66.7544C47.2366 66.8216 48.7883 66.872 50.3569 66.872C51.9424 66.872 53.511 66.8384 55.0458 66.7544C53.5278 68.7198 51.9593 70.5172 50.4075 72.1299ZM37.8588 62.2357C35.4637 61.8829 33.153 61.4462 30.9435 60.9086C31.5675 58.7417 32.3434 56.5075 33.2204 54.2733C33.912 55.6172 34.6372 56.961 35.43 58.3049C36.2227 59.6488 37.0323 60.959 37.8588 62.2357ZM50.3232 27.2785C51.8918 28.8912 53.4604 30.6886 55.0121 32.654C53.4941 32.5868 51.9424 32.5364 50.3738 32.5364C48.7883 32.5364 47.2197 32.57 45.6849 32.654C47.2029 30.6886 48.7715 28.8912 50.3232 27.2785ZM37.8419 37.1727C37.0154 38.4662 36.189 39.7932 35.4131 41.1539C34.6372 42.4977 33.912 43.8416 33.2204 45.1855C32.3097 42.9345 31.5338 40.6835 30.8929 38.4998C33.1024 37.979 35.43 37.5255 37.8419 37.1727ZM22.5776 58.2041C16.6068 55.6676 12.7444 52.3415 12.7444 49.7042C12.7444 47.0669 16.6068 43.724 22.5776 41.2043C24.0282 40.5827 25.6136 40.0284 27.2497 39.5076C28.2111 42.8001 29.4761 46.227 31.0447 49.7378C29.4929 53.2318 28.2448 56.6419 27.3003 59.9175C25.6305 59.3968 24.045 58.8256 22.5776 58.2041ZM31.6519 82.2088C29.358 80.8986 28.3629 75.9095 29.1387 69.4925C29.3243 67.9135 29.6279 66.2505 29.9989 64.5538C33.3048 65.3602 36.9142 65.9817 40.7092 66.3849C42.9862 69.4925 45.3475 72.3146 47.7257 74.784C42.2272 79.8739 37.066 82.6624 33.5578 82.6624C32.7988 82.6456 32.1579 82.4944 31.6519 82.2088ZM71.6594 69.4085C72.4522 75.8255 71.4739 80.8146 69.1969 82.1416C68.6909 82.444 68.0331 82.5784 67.2573 82.5784C63.7659 82.5784 58.5878 79.8067 53.0893 74.7504C55.4506 72.281 57.812 69.4757 60.0552 66.3681C63.8671 65.9649 67.4765 65.3434 70.7824 64.5203C71.1703 66.2169 71.4739 67.8463 71.6594 69.4085ZM78.1531 58.2041C76.7026 58.8256 75.1171 59.38 73.481 59.9007C72.5196 56.6083 71.2546 53.1814 69.6861 49.6706C71.2378 46.1766 72.4859 42.7665 73.4304 39.4909C75.1002 40.0116 76.6857 40.5827 78.17 41.2043C84.1407 43.7408 88.0032 47.0669 88.0032 49.7042C87.9863 52.3415 84.1239 55.6844 78.1531 58.2041Z" fill="#61DAFB"/>
<path d="M50.3569 57.381C54.614 57.381 58.065 53.944 58.065 49.7042C58.065 45.4644 54.614 42.0274 50.3569 42.0274C46.0999 42.0274 42.6489 45.4644 42.6489 49.7042C42.6489 53.944 46.0999 57.381 50.3569 57.381Z" fill="#61DAFB"/>
</g>
<g opacity="0.6" filter="url(#filter1_f)">
<path d="M91.7476 49.7042C91.7476 44.2448 84.8829 39.0709 74.3581 35.8624C76.7869 25.1787 75.7074 16.6788 70.951 13.9575C69.8547 13.3192 68.5729 13.0168 67.1729 13.0168V16.7628C67.9488 16.7628 68.5729 16.914 69.0957 17.1996C71.3896 18.5098 72.3847 23.4989 71.6089 29.9158C71.4233 31.4949 71.1197 33.1579 70.7486 34.8545C67.4428 34.0482 63.8333 33.4267 60.0384 33.0235C57.7614 29.9158 55.4 27.0937 53.0218 24.6244C58.5204 19.5345 63.6815 16.746 67.1898 16.746V13C62.5515 13 56.4795 16.2925 50.3401 22.0039C44.2006 16.3261 38.1286 13.0672 33.4903 13.0672V16.8132C36.9817 16.8132 42.1598 19.5849 47.6583 24.6412C45.2969 27.1105 42.9356 29.9158 40.6924 33.0235C36.8805 33.4267 33.271 34.0482 29.9652 34.8713C29.5773 33.1915 29.2905 31.5621 29.0881 29.9998C28.2954 23.5829 29.2737 18.5938 31.5507 17.2668C32.0567 16.9644 32.7145 16.83 33.4903 16.83V13.084C32.0735 13.084 30.7917 13.3864 29.6785 14.0247C24.9389 16.746 23.8763 25.2291 26.322 35.8792C15.831 39.1045 9 44.2616 9 49.7042C9 55.1636 15.8647 60.3375 26.3895 63.546C23.9607 74.2296 25.0401 82.7296 29.7965 85.4509C30.8929 86.0892 32.1747 86.3916 33.5915 86.3916C38.2298 86.3916 44.3018 83.0991 50.4413 77.3877C56.5807 83.0655 62.6527 86.3244 67.291 86.3244C68.7078 86.3244 69.9897 86.022 71.1029 85.3837C75.8424 82.6624 76.905 74.1792 74.4593 63.5292C84.9166 60.3207 91.7476 55.1468 91.7476 49.7042ZM69.7873 38.4998C69.1632 40.6667 68.3873 42.9009 67.5103 45.1351C66.8187 43.7912 66.0935 42.4473 65.3007 41.1035C64.5249 39.7596 63.6984 38.4494 62.8719 37.1727C65.267 37.5255 67.5777 37.9622 69.7873 38.4998ZM62.0623 56.3899C60.7467 58.6577 59.3974 60.8078 57.9975 62.8068C55.4844 63.0252 52.9375 63.1428 50.3738 63.1428C47.8269 63.1428 45.2801 63.0252 42.7838 62.8236C41.3839 60.8246 40.0177 58.6913 38.7021 56.4403C37.4202 54.2397 36.2564 52.0056 35.1938 49.7546C36.2396 47.5036 37.4202 45.2527 38.6852 43.0521C40.0008 40.7843 41.3502 38.6341 42.7501 36.6351C45.2632 36.4168 47.8101 36.2992 50.3738 36.2992C52.9206 36.2992 55.4675 36.4168 57.9638 36.6183C59.3637 38.6173 60.7299 40.7507 62.0455 43.0017C63.3273 45.2023 64.4911 47.4364 65.5537 49.6874C64.4911 51.9384 63.3273 54.1893 62.0623 56.3899ZM67.5103 54.2061C68.4211 56.4571 69.1969 58.7081 69.8379 60.8918C67.6283 61.4294 65.3007 61.8829 62.8888 62.2357C63.7153 60.9422 64.5417 59.6152 65.3176 58.2545C66.0935 56.9106 66.8187 55.55 67.5103 54.2061ZM50.4075 72.1299C48.8389 70.5172 47.2703 68.7198 45.7186 66.7544C47.2366 66.8216 48.7883 66.872 50.3569 66.872C51.9424 66.872 53.511 66.8384 55.0458 66.7544C53.5278 68.7198 51.9593 70.5172 50.4075 72.1299ZM37.8588 62.2357C35.4637 61.8829 33.153 61.4462 30.9435 60.9086C31.5675 58.7417 32.3434 56.5075 33.2204 54.2733C33.912 55.6172 34.6372 56.961 35.43 58.3049C36.2227 59.6488 37.0323 60.959 37.8588 62.2357ZM50.3232 27.2785C51.8918 28.8912 53.4604 30.6886 55.0121 32.654C53.4941 32.5868 51.9424 32.5364 50.3738 32.5364C48.7883 32.5364 47.2197 32.57 45.6849 32.654C47.2029 30.6886 48.7715 28.8912 50.3232 27.2785ZM37.8419 37.1727C37.0154 38.4662 36.189 39.7932 35.4131 41.1539C34.6372 42.4977 33.912 43.8416 33.2204 45.1855C32.3097 42.9345 31.5338 40.6835 30.8929 38.4998C33.1024 37.979 35.43 37.5255 37.8419 37.1727ZM22.5776 58.2041C16.6068 55.6676 12.7444 52.3415 12.7444 49.7042C12.7444 47.0669 16.6068 43.724 22.5776 41.2043C24.0282 40.5827 25.6136 40.0284 27.2497 39.5076C28.2111 42.8001 29.4761 46.227 31.0447 49.7378C29.4929 53.2318 28.2448 56.6419 27.3003 59.9175C25.6305 59.3968 24.045 58.8256 22.5776 58.2041ZM31.6519 82.2088C29.358 80.8986 28.3629 75.9095 29.1387 69.4925C29.3243 67.9135 29.6279 66.2505 29.9989 64.5538C33.3048 65.3602 36.9142 65.9817 40.7092 66.3849C42.9862 69.4925 45.3475 72.3146 47.7257 74.784C42.2272 79.8739 37.066 82.6624 33.5578 82.6624C32.7988 82.6456 32.1579 82.4944 31.6519 82.2088ZM71.6594 69.4085C72.4522 75.8255 71.4739 80.8146 69.1969 82.1416C68.6909 82.444 68.0331 82.5784 67.2573 82.5784C63.7659 82.5784 58.5878 79.8067 53.0893 74.7504C55.4506 72.281 57.812 69.4757 60.0552 66.3681C63.8671 65.9649 67.4765 65.3434 70.7824 64.5203C71.1703 66.2169 71.4739 67.8463 71.6594 69.4085ZM78.1531 58.2041C76.7026 58.8256 75.1171 59.38 73.481 59.9007C72.5196 56.6083 71.2546 53.1814 69.6861 49.6706C71.2378 46.1766 72.4859 42.7665 73.4304 39.4909C75.1002 40.0116 76.6857 40.5827 78.17 41.2043C84.1407 43.7408 88.0032 47.0669 88.0032 49.7042C87.9863 52.3415 84.1239 55.6844 78.1531 58.2041Z" fill="#61DAFB"/>
<path d="M50.3569 57.381C54.614 57.381 58.065 53.944 58.065 49.7042C58.065 45.4644 54.614 42.0274 50.3569 42.0274C46.0999 42.0274 42.6489 45.4644 42.6489 49.7042C42.6489 53.944 46.0999 57.381 50.3569 57.381Z" fill="#61DAFB"/>
</g>
<g filter="url(#filter2_f)">
<path d="M91.7476 49.7042C91.7476 44.2448 84.8829 39.0709 74.3581 35.8624C76.7869 25.1787 75.7074 16.6788 70.951 13.9575C69.8547 13.3192 68.5729 13.0168 67.1729 13.0168V16.7628C67.9488 16.7628 68.5729 16.914 69.0957 17.1996C71.3896 18.5098 72.3847 23.4989 71.6089 29.9158C71.4233 31.4949 71.1197 33.1579 70.7486 34.8545C67.4428 34.0482 63.8333 33.4267 60.0384 33.0235C57.7614 29.9158 55.4 27.0937 53.0218 24.6244C58.5204 19.5345 63.6815 16.746 67.1898 16.746V13C62.5515 13 56.4795 16.2925 50.3401 22.0039C44.2006 16.3261 38.1286 13.0672 33.4903 13.0672V16.8132C36.9817 16.8132 42.1598 19.5849 47.6583 24.6412C45.2969 27.1105 42.9356 29.9158 40.6924 33.0235C36.8805 33.4267 33.271 34.0482 29.9652 34.8713C29.5773 33.1915 29.2905 31.5621 29.0881 29.9998C28.2954 23.5829 29.2737 18.5938 31.5507 17.2668C32.0567 16.9644 32.7145 16.83 33.4903 16.83V13.084C32.0735 13.084 30.7917 13.3864 29.6785 14.0247C24.9389 16.746 23.8763 25.2291 26.322 35.8792C15.831 39.1045 9 44.2616 9 49.7042C9 55.1636 15.8647 60.3375 26.3895 63.546C23.9607 74.2296 25.0401 82.7296 29.7965 85.4509C30.8929 86.0892 32.1747 86.3916 33.5915 86.3916C38.2298 86.3916 44.3018 83.0991 50.4413 77.3877C56.5807 83.0655 62.6527 86.3244 67.291 86.3244C68.7078 86.3244 69.9897 86.022 71.1029 85.3837C75.8424 82.6624 76.905 74.1792 74.4593 63.5292C84.9166 60.3207 91.7476 55.1468 91.7476 49.7042ZM69.7873 38.4998C69.1632 40.6667 68.3873 42.9009 67.5103 45.1351C66.8187 43.7912 66.0935 42.4473 65.3007 41.1035C64.5249 39.7596 63.6984 38.4494 62.8719 37.1727C65.267 37.5255 67.5777 37.9622 69.7873 38.4998ZM62.0623 56.3899C60.7467 58.6577 59.3974 60.8078 57.9975 62.8068C55.4844 63.0252 52.9375 63.1428 50.3738 63.1428C47.8269 63.1428 45.2801 63.0252 42.7838 62.8236C41.3839 60.8246 40.0177 58.6913 38.7021 56.4403C37.4202 54.2397 36.2564 52.0056 35.1938 49.7546C36.2396 47.5036 37.4202 45.2527 38.6852 43.0521C40.0008 40.7843 41.3502 38.6341 42.7501 36.6351C45.2632 36.4168 47.8101 36.2992 50.3738 36.2992C52.9206 36.2992 55.4675 36.4168 57.9638 36.6183C59.3637 38.6173 60.7299 40.7507 62.0455 43.0017C63.3273 45.2023 64.4911 47.4364 65.5537 49.6874C64.4911 51.9384 63.3273 54.1893 62.0623 56.3899ZM67.5103 54.2061C68.4211 56.4571 69.1969 58.7081 69.8379 60.8918C67.6283 61.4294 65.3007 61.8829 62.8888 62.2357C63.7153 60.9422 64.5417 59.6152 65.3176 58.2545C66.0935 56.9106 66.8187 55.55 67.5103 54.2061ZM50.4075 72.1299C48.8389 70.5172 47.2703 68.7198 45.7186 66.7544C47.2366 66.8216 48.7883 66.872 50.3569 66.872C51.9424 66.872 53.511 66.8384 55.0458 66.7544C53.5278 68.7198 51.9593 70.5172 50.4075 72.1299ZM37.8588 62.2357C35.4637 61.8829 33.153 61.4462 30.9435 60.9086C31.5675 58.7417 32.3434 56.5075 33.2204 54.2733C33.912 55.6172 34.6372 56.961 35.43 58.3049C36.2227 59.6488 37.0323 60.959 37.8588 62.2357ZM50.3232 27.2785C51.8918 28.8912 53.4604 30.6886 55.0121 32.654C53.4941 32.5868 51.9424 32.5364 50.3738 32.5364C48.7883 32.5364 47.2197 32.57 45.6849 32.654C47.2029 30.6886 48.7715 28.8912 50.3232 27.2785ZM37.8419 37.1727C37.0154 38.4662 36.189 39.7932 35.4131 41.1539C34.6372 42.4977 33.912 43.8416 33.2204 45.1855C32.3097 42.9345 31.5338 40.6835 30.8929 38.4998C33.1024 37.979 35.43 37.5255 37.8419 37.1727ZM22.5776 58.2041C16.6068 55.6676 12.7444 52.3415 12.7444 49.7042C12.7444 47.0669 16.6068 43.724 22.5776 41.2043C24.0282 40.5827 25.6136 40.0284 27.2497 39.5076C28.2111 42.8001 29.4761 46.227 31.0447 49.7378C29.4929 53.2318 28.2448 56.6419 27.3003 59.9175C25.6305 59.3968 24.045 58.8256 22.5776 58.2041ZM31.6519 82.2088C29.358 80.8986 28.3629 75.9095 29.1387 69.4925C29.3243 67.9135 29.6279 66.2505 29.9989 64.5538C33.3048 65.3602 36.9142 65.9817 40.7092 66.3849C42.9862 69.4925 45.3475 72.3146 47.7257 74.784C42.2272 79.8739 37.066 82.6624 33.5578 82.6624C32.7988 82.6456 32.1579 82.4944 31.6519 82.2088ZM71.6594 69.4085C72.4522 75.8255 71.4739 80.8146 69.1969 82.1416C68.6909 82.444 68.0331 82.5784 67.2573 82.5784C63.7659 82.5784 58.5878 79.8067 53.0893 74.7504C55.4506 72.281 57.812 69.4757 60.0552 66.3681C63.8671 65.9649 67.4765 65.3434 70.7824 64.5203C71.1703 66.2169 71.4739 67.8463 71.6594 69.4085ZM78.1531 58.2041C76.7026 58.8256 75.1171 59.38 73.481 59.9007C72.5196 56.6083 71.2546 53.1814 69.6861 49.6706C71.2378 46.1766 72.4859 42.7665 73.4304 39.4909C75.1002 40.0116 76.6857 40.5827 78.17 41.2043C84.1407 43.7408 88.0032 47.0669 88.0032 49.7042C87.9863 52.3415 84.1239 55.6844 78.1531 58.2041Z" fill="white"/>
<path d="M50.3569 57.381C54.614 57.381 58.065 53.944 58.065 49.7042C58.065 45.4644 54.614 42.0274 50.3569 42.0274C46.0999 42.0274 42.6489 45.4644 42.6489 49.7042C42.6489 53.944 46.0999 57.381 50.3569 57.381Z" fill="white"/>
</g>
<defs>
<filter id="filter0_f" x="3" y="7" width="94.7476" height="85.3916" filterUnits="userSpaceOnUse" color-interpolation-filters="sRGB">
<feFlood flood-opacity="0" result="BackgroundImageFix"/>
<feBlend mode="normal" in="SourceGraphic" in2="BackgroundImageFix" result="shape"/>
<feGaussianBlur stdDeviation="3" result="effect1_foregroundBlur"/>
</filter>
<filter id="filter1_f" x="3" y="7" width="94.7476" height="85.3916" filterUnits="userSpaceOnUse" color-interpolation-filters="sRGB">
<feFlood flood-opacity="0" result="BackgroundImageFix"/>
<feBlend mode="normal" in="SourceGraphic" in2="BackgroundImageFix" result="shape"/>
<feGaussianBlur stdDeviation="3" result="effect1_foregroundBlur"/>
</filter>
<filter id="filter2_f" x="8" y="12" width="84.7476" height="75.3916" filterUnits="userSpaceOnUse" color-interpolation-filters="sRGB">
<feFlood flood-opacity="0" result="BackgroundImageFix"/>
<feBlend mode="normal" in="SourceGraphic" in2="BackgroundImageFix" result="shape"/>
<feGaussianBlur stdDeviation="0.5" result="effect1_foregroundBlur"/>
</filter>
</defs>
</svg>
